# xmcd
#
# Track frame offsets:
#	150
#	12084
#	32301
#	42125
#	59507
#	72229
#	90033
#	101024
#	112242
#	123486
#	132574
#	163255
#	179793
#	197553
#	209439
#	225510
#	239182
#	256550
#	273579
#	287369
#
# Disc length: 4186 seconds
#
# Revision: 0
# Processed by: cddbd v1.5.1PL2 Copyright (c) Steve Scherf et al.
# Submitted via: dBpowerAMP V4.0
#
DISCID=20105814
DTITLE=Featuring - 20 Classics tracks
DYEAR=1900
DGENRE=
TTITLE0=The Platters - Only you
TTITLE1=The covertones - I will always love you
TTITLE2=Bill Halley and His Comets - Rock around the clock
TTITLE3=Kool and The Gang - Ladies night
TTITLE4=The Archies - Sugar sugar
TTITLE5=Sabrina - Boys
TTITLE6=Mamas And The Papas - California Dreamin'
TTITLE7=James Brown - I got you (I feel good)
TTITLE8=Little Richard - Tutti frutti
TTITLE9=The Beach Boys - Surfin' safari
TTITLE10=Anita Ward - Ring my bell
TTITLE11=Mungo Jerry - In the summertimes
TTITLE12=Jerry Lee Lewis - Great balls of fire
TTITLE13=Chubby Checker - The twist
TTITLE14=Glenn Miller - In the mood
TTITLE15=Marilyn Monroe - I wanna be loved by you
TTITLE16=Russel B. - Crockett's theme from Miami Vice
TTITLE17=Russel B. - Chase theme from Midnight Express
TTITLE18=Fats Domino - Blueberry hill
TTITLE19=Gloria Gaynor - I am what I am
EXTD=\n
EXTT0=
EXTT1=
EXTT2=
EXTT3=
EXTT4=
EXTT5=
EXTT6=
EXTT7=
EXTT8=
EXTT9=
EXTT10=
EXTT11=
EXTT12=
EXTT13=
EXTT14=
EXTT15=
EXTT16=
EXTT17=
EXTT18=
EXTT19=
PLAYORDER=
